<svg width="260.000000" height="260.000000" viewBox="0 0 260 260" fill="none" xmlns="http://www.w3.org/2000/svg" xmlns:xlink="http://www.w3.org/1999/xlink">
	<desc>
			Created with Pixso.
	</desc>
	<defs>
		<clipPath id="clip3844_212">
			<rect width="180.000000" height="180.000000" transform="translate(40.000000 40.000000)" fill="white" fill-opacity="0"/>
		</clipPath>
		<clipPath id="clip3844_215">
			<rect width="276.000000" height="276.000000" transform="translate(-8.000000 -8.000000)" fill="white" fill-opacity="0"/>
		</clipPath>
		<clipPath id="clip3844_211">
			<rect rx="40.000000" width="260.000000" height="260.000000" fill="white" fill-opacity="0"/>
		</clipPath>
	</defs>
	<rect rx="40.000000" width="260.000000" height="260.000000" fill="#000000" fill-opacity="1.000000"/>
	<g clip-path="url(#clip3844_211)">
		<rect x="16.000000" y="44.000000" width="227.000000" height="173.000000" fill="#FFFFFF" fill-opacity="1.000000"/>
		<rect width="276.000000" height="276.000000" transform="translate(-8.000000 -8.000000)" fill="#FFFFFF" fill-opacity="0"/>
		<g clip-path="url(#clip3844_215)">
			<path d="M13 13L247 13C254.18 13 260 18.82 260 26L260 234C260 241.18 254.18 247 247 247L13 247C5.82 247 0 241.18 0 234L0 26C0 18.82 5.82 13 13 13ZM188.03 175.96L234 130L188.03 84.03L169.65 102.42L197.23 130L169.65 157.57L188.03 175.96ZM62.76 130L90.34 102.42L71.96 84.03L26 130L71.96 175.96L90.34 157.57L62.76 130ZM120.17 195L167.49 65L139.82 65L92.5 195L120.17 195Z" fill="#000000" fill-opacity="1.000000" fill-rule="nonzero"/>
		</g>
	</g>
</svg>
